<?xml version="1.0" encoding="UTF-8" standalone="no"?>
<!-- Created with Inkscape (http://www.inkscape.org/) -->

<svg
   xmlns:dc="http://purl.org/dc/elements/1.1/"
   xmlns:cc="http://creativecommons.org/ns#"
   xmlns:rdf="http://www.w3.org/1999/02/22-rdf-syntax-ns#"
   xmlns:svg="http://www.w3.org/2000/svg"
   xmlns="http://www.w3.org/2000/svg"
   xmlns:sodipodi="http://sodipodi.sourceforge.net/DTD/sodipodi-0.dtd"
   xmlns:inkscape="http://www.inkscape.org/namespaces/inkscape"
   width="420mm"
   height="594mm"
   viewBox="0 0 1488.189 2104.7244"
   id="svg2"
   version="1.1"
   inkscape:version="0.91 r13725"
   sodipodi:docname="poster_11_pirates_century_2_by_a2.svg"
   inkscape:export-filename="/media/jedi/Transcend/data/portfolio/posters/legacy_2014/pirates_campaign/posters_by/svg/poster_11_pirates_century_2_by_a2.png"
   inkscape:export-xdpi="300"
   inkscape:export-ydpi="300">
  <defs
     id="defs4">
    <inkscape:path-effect
       bendpath3-nodetypes="cc"
       bendpath2-nodetypes="cc"
       bendpath4="m 34.180532,-73.046703 0,22.738033"
       bendpath3="m 34.180532,-50.30867 117.177958,5.27572"
       bendpath2="m 151.76951,-73.046703 -0.41102,26.986211"
       bendpath1="m 34.180532,-73.046703 117.588978,0"
       xx="true"
       yy="true"
       is_visible="true"
       id="path-effect3008"
       effect="envelope" />
    <clipPath
       clipPathUnits="userSpaceOnUse"
       id="clipPath4170">
      <rect
         style="opacity:1;fill:#89a02c;fill-opacity:1;fill-rule:nonzero;stroke:none;stroke-width:5;stroke-linecap:round;stroke-linejoin:round;stroke-miterlimit:4;stroke-dasharray:none;stroke-opacity:1"
         id="rect4172"
         width="1488.3"
         height="2104.8"
         x="0"
         y="-1052.4379"
         rx="1.42856"
         ry="1.42856" />
    </clipPath>
    <clipPath
       clipPathUnits="userSpaceOnUse"
       id="clipPath4174">
      <rect
         style="opacity:1;fill:#89a02c;fill-opacity:1;fill-rule:nonzero;stroke:none;stroke-width:5;stroke-linecap:round;stroke-linejoin:round;stroke-miterlimit:4;stroke-dasharray:none;stroke-opacity:1"
         id="rect4176"
         width="1488.3"
         height="2104.8"
         x="0"
         y="-1052.4379"
         rx="1.42856"
         ry="1.42856" />
    </clipPath>
  </defs>
  <sodipodi:namedview
     id="base"
     pagecolor="#ffffff"
     bordercolor="#666666"
     borderopacity="1.0"
     inkscape:pageopacity="0.0"
     inkscape:pageshadow="2"
     inkscape:zoom="0.3535534"
     inkscape:cx="617.1758"
     inkscape:cy="948.52768"
     inkscape:document-units="px"
     inkscape:current-layer="layer1"
     showgrid="false"
     inkscape:window-width="1855"
     inkscape:window-height="1056"
     inkscape:window-x="65"
     inkscape:window-y="24"
     inkscape:window-maximized="1"
     showguides="true"
     inkscape:guide-bbox="true">
    <sodipodi:guide
       position="-38.183767,179.60513"
       orientation="0,1"
       id="guide4147" />
    <sodipodi:guide
       position="1440,420.00001"
       orientation="0,1"
       id="guide4178" />
    <sodipodi:guide
       position="2793.0001,306.00001"
       orientation="0,1"
       id="guide4180" />
    <sodipodi:guide
       position="140,-888.00001"
       orientation="1,0"
       id="guide4231" />
    <sodipodi:guide
       position="1322,-1576"
       orientation="1,0"
       id="guide4245" />
  </sodipodi:namedview>
  <metadata
     id="metadata7">
    <rdf:RDF>
      <cc:Work
         rdf:about="">
        <dc:format>image/svg+xml</dc:format>
        <dc:type
           rdf:resource="http://purl.org/dc/dcmitype/StillImage" />
        <dc:title />
      </cc:Work>
    </rdf:RDF>
  </metadata>
  <g
     inkscape:label="Layer 1"
     inkscape:groupmode="layer"
     id="layer1"
     transform="translate(0,1052.3622)">
    <rect
       style="opacity:1;fill:#ff6600;fill-opacity:1;fill-rule:nonzero;stroke:none;stroke-width:5;stroke-linecap:round;stroke-linejoin:round;stroke-miterlimit:4;stroke-dasharray:none;stroke-opacity:1"
       id="rect4149"
       width="1488.189"
       height="2104.7244"
       x="0"
       y="-1052.3622"
       rx="1.42856"
       ry="1.42856" />
    <path
       style="fill:#1a1a1a;fill-opacity:1;fill-rule:evenodd;stroke:none"
       d="m 1185.9923,-616.87325 40.6715,127.97136 -120.5474,-31.3495 -33.791,9.0169 0.572,42.08527 -146.91164,-46.05028 -0.011,-0.0935 -143.39099,-45.20213 0.25375,9.8441 143.95447,45.77611 -0.011,-0.0806 146.10751,46.11641 0.572,110.3681 32.0726,-5.15179 0,-51.9616 c 0,-14.17546 4.0179,-22.76199 17.7634,-22.3326 8.0182,0.42938 13.173,3.86313 13.7457,20.60887 l 0,48.10292 27.4977,-4.29392 0.5744,-67.85402 85.6034,15.88763 30.9285,93.19215 -99.3514,-22.33261 -941.14459,156.32327 0,18.03216 22.33821,9.4491 c 0,0 -20.04718,15.88895 -18.32911,39.07958 0.57206,12.02251 5.15411,24.907748 25.20518,30.491642 9.73477,-0.859842 69.31132,-9.449012 69.31132,-9.449012 l 11.45294,-12.45305 -22.3381,-8.58958 c 0,0 -8.0191,12.02308 -24.05877,14.17356 -18.32961,2.1451 -25.77734,-10.74014 -26.34919,-21.04586 0,-9.87509 6.30032,-20.18296 20.62163,-22.33103 18.3297,-3.00503 25.77723,4.29722 25.77723,4.29722 l 18.90117,-14.17347 c 0,0 2.86457,-4.72496 -9.1667,-10.73742 25.77764,2.57862 35.51819,4.29558 35.51819,4.29558 l -0.57217,62.27169 83.05919,-11.1663 -0.57426,-12.45627 -46.97322,5.58389 0,-14.17025 41.81782,-6.8723 0,-18.03702 -41.81782,6.87229 0,-15.46188 48.11973,-9.44736 0,-19.75588 28.63763,6.44175 -0.56997,73.43634 36.66231,-5.15343 -0.57635,-40.79687 52.12873,33.92457 37.80652,-5.15021 0,-87.60504 20.04968,6.44019 0.57205,15.88755 32.07696,-4.29393 -0.57226,63.12782 39.523,-5.58397 -0.56996,-64.41458 31.5026,-5.58232 0.57206,-24.90932 16.61274,8.15747 0,57.11983 c 0,0 -9e-4,14.17042 18.3311,18.03538 18.90555,4.29557 72.75055,-6.87073 72.75055,-6.87073 0,0 22.90946,-4.29566 23.48222,-20.18799 0.57276,-20.61012 0.57216,-76.86928 0.57216,-76.86928 l 32.6533,7.29797 0,81.60026 40.67141,-5.58398 0.57206,-27.91328 54.41706,21.04577 48.11752,-7.30605 -47.54317,-23.18551 c 0,0 28.06997,-8.59346 28.06997,-24.48043 0,-11.59916 -3.4427,-18.8939 -16.0427,-26.19929 -4.00908,-1.71746 -14.89205,-6.86908 -14.89205,-6.86908 l 50.40795,8.58802 38.9466,29.20324 0,37.36072 45.8333,-6.86907 0.572,-37.79126 59.5726,-69.57123 107.3674,24.05146 42.9706,132.26859 -152.0564,-36.50616 -942.86511,124.541738 0,24.154659 8.14712,2.954008 c 0,12.63022 -0.024,124.636184 -0.023,124.593254 15.48657,-1.520719 30.99211,-3.011799 46.47839,-4.474562 0.55998,-15.151625 0.40322,-32.97136 0.33557,-47.90305 10.26861,-1.151684 20.5423,-2.292058 30.80802,-3.421617 23.06822,-2.538328 40.66472,-8.337946 52.99115,-17.580646 12.36605,-9.2831539 18.62427,-21.324901 18.71188,-35.890199 0.0878,-14.521294 -6.09168,-24.836423 -18.61519,-31.059233 -2.59666,-1.313333 -5.44378,-2.414079 -8.51272,-3.324859 l 0.94415,-0.116076 58.93595,9.91984 c 0.17112,37.185121 -0.2324,101.865363 -1.00013,117.167904 15.46892,-1.360639 31.00748,-2.717645 46.47631,-4.063423 1.09112,-20.442603 1.57647,-106.61732 1.03245,-136.056269 l 1.4281,-0.175766 44.65046,7.5141 c 0.29835,36.499807 -0.25874,105.064651 -1.35935,124.74805 15.85807,-1.373187 30.61603,-2.650607 46.47421,-4.024703 1.07836,-18.614191 1.24339,-39.808237 1.38079,-57.2842822 4.39557,-0.4552249 8.79571,-0.9093766 13.19087,-1.3641887 7.58293,-0.7846314 13.62552,-0.059029 18.11597,2.204299 4.5596,2.2496234 9.05294,6.8997861 13.36508,14.0348629 7.06825,11.70879 14.24358,24.121057 20.70575,36.602839 16.52602,-1.445096 32.96753,-2.890191 49.49385,-4.352046 -7.37209,-14.43692 -15.71678,-28.852623 -23.8157,-42.2529445 -5.02468,-8.2554713 -10.11723,-14.1763675 -15.14163,-17.8337695 -4.95733,-3.742603 -10.62413,-5.848327 -16.98472,-6.357958 11.64622,-4.206991 20.35611,-9.763393 26.14724,-16.637339 5.86207,-6.871551 8.86345,-15.177796 8.91284,-24.788374 0.0708,-13.912264 -5.60164,-23.30654 -16.93313,-28.316491 -1.46961,-0.655593 -3.05567,-1.238948 -4.74251,-1.757578 l 101.08055,16.237511 c -18.92182,44.06534 -48.14258,111.611088 -52.48564,121.173205 15.59104,-1.38136 31.12591,-2.767509 46.71717,-4.168189 4.37689,-10.234799 8.65431,-20.666252 12.66391,-30.552905 24.32628,-2.374616 48.37577,-4.7390776 72.69247,-7.1480379 3.51527,9.3713259 6.98703,19.1216749 10.1366,28.9839729 15.58836,-1.446664 31.13321,-2.901006 46.72156,-4.371365 -12.67458,-36.76878 -46.40495,-112.492725 -62.96001,-145.148962 l 48.15406,6.71106 c 0.33377,9.54651 0.40472,3.43425 0.36561,12.99166 16.3,-1.91981 43.69054,-5.14708 59.98337,-7.06581 -0.12632,18.70005 -1.32332,104.689671 -2.68646,128.440621 15.50932,-1.484145 30.96946,-2.975803 46.47869,-4.481084 1.21915,-21.957377 2.59467,-112.494046 2.75302,-129.435447 19.87784,-2.33474 39.95354,-4.6869 59.82414,-7.00298 0.099,-7.69507 0.068,-17.14854 0.063,-23.90955 -0.024,-2.22494 -0.055,-4.44608 -0.1036,-6.65137 l 23.9878,4.53904 c 0.2819,14.58247 -1.8345,134.249903 -2.8585,154.252885 43.9478,-4.3524587 84.1421,-8.3851701 128.0883,-12.7819623 0.4794,-11.3680737 0.7193,-22.8433897 0.8903,-33.6456107 -26.9659,2.737046 -54.4768,5.555246 -81.4569,8.32515 0.1974,-10.373745 0.4268,-27.717367 0.585,-37.604268 24.6317,-2.61519 49.4488,-5.231123 74.0627,-7.789761 0.1795,-10.986656 0.3836,-20.552405 0.6579,-31.407543 -24.6496,2.63583 -49.4533,5.33424 -74.1203,8.044615 0.2002,-9.076925 0.4734,-20.451605 0.6364,-29.517705 26.28,-3.01164 52.7021,-6.00263 78.9685,-8.91693 0.1982,-8.21568 0.3615,-16.72287 0.3978,-25.15122 l 2.0305,-1.42701 161.2208,37.36394 -130.7463,-490.43655 z m -403.15027,66.22218 c -0.25395,-9.8441 0,0.004 -0.25385,-9.84032 l -98.19632,16.6658 -93.33995,28.4632 0,45.92455 93.87759,-28.55509 0,90.56383 -118.12346,-38.06048 -91.36344,-30.52393 c 0,0 -25.40724,-6.70478 -44.23955,-6.68365 -1.94818,0.002 -3.8265,0.076 -5.59854,0.23703 -33.79723,3.00569 -108.26147,22.33401 -132.32074,64.84833 l -21.19388,48.10135 83.63333,-10.31166 c 0,0 9.73805,-26.6205 28.64002,-38.64912 21.19408,-13.31066 41.81821,-18.46385 61.29103,-6.87064 18.90466,11.16382 13.1748,24.90436 -1.71856,40.36798 -9.73478,10.30505 -174.70851,151.16496 -174.70851,151.16496 l 0,23.19203 273.2341,-45.94865 0,-35.64509 -116.85679,16.74541 97.38137,-89.75121 c 0,0 13.1764,-10.74096 17.18479,-28.34547 6.87588,-24.48051 1.71678,-33.06828 -1.1485,-39.07958 -1.86226,-4.19196 -5.53009,-10.50113 -7.96002,-14.57025 l 37.65166,12.12571 1.75938,0.70471 0.0599,-0.11938 114.39614,36.84152 0,68.81343 -91.45585,15.52478 0,46.62431 280.82433,-47.66759 0,-46.62596 -91.45585,15.52478 0,-205.18564 z m 323.84657,39.84547 122.84,31.78005 18.9077,54.97199 -86.1843,-16.75184 c 0,0 -10.3098,-9.44555 -29.2099,-8.15748 -18.3352,1.28815 -26.3535,11.16952 -26.3535,11.16952 z m -76.8005,62.27813 -28.6378,5.15179 0,109.03784 28.6378,-6.44011 0,-59.65303 c 9.1636,-2.14692 23.4802,-5.58233 23.4802,-5.58233 l 0,-20.61052 -23.4802,4.28756 z m 32.6921,152.87582 54.4256,8.59445 -18.9075,21.89719 z m -274.94837,40.37442 32.65331,12.4514 c 0,0 0.57215,43.80206 0.57215,50.24274 -0.57275,6.44068 -4.59033,10.73939 -16.04486,12.45627 -11.45463,1.71869 -17.1806,1.29063 -17.1806,-10.30852 z m 165.12042,2.00913 c 3.75854,-0.0377 7.43835,0.0829 9.58608,0.56593 5.73515,1.71754 8.58926,5.58381 7.44375,11.16474 -1.14532,5.58207 -6.29893,7.29862 -10.88078,8.15739 -4.00909,1.28815 -18.90116,3.01213 -18.90116,3.01213 l 0,-22.33426 c 0,9e-5 6.4879,-0.50319 12.75211,-0.56593 z m -449.24179,38.35719 71.0298,16.74541 -0.57206,34.78731 z m 282.47175,128.427748 c 7.15147,16.525225 16.93882,40.136322 23.96198,57.647125 -16.51285,1.729425 -32.8882,3.437963 -49.40794,5.158224 14.95374,-37.39845 10.57734,-25.998922 25.44596,-62.805349 z m -188.01332,15.519916 c 4.80387,0.09923 8.5191,0.874785 11.14541,2.333255 4.2829,2.324173 6.41347,6.763483 6.37046,13.34798 -0.0429,6.649222 -2.22875,11.699461 -6.52982,15.092595 -4.22613,3.388842 -11.21584,5.611221 -20.98733,6.678779 -6.53282,0.713796 -13.0855,1.429987 -19.61951,2.144609 0.0908,-11.403325 0.21902,-25.573501 0.17213,-36.759286 6.51485,-0.759369 13.11393,-1.527323 19.62808,-2.286444 3.66485,-0.42699 6.93814,-0.61093 9.82058,-0.551488 z m -270.25526,31.818685 c 5.3421,0.05721 9.70782,1.01728 13.09397,2.881522 4.9267,2.712856 7.3689,7.141516 7.32988,13.293079 -0.0399,6.150737 -2.53609,11.220377 -7.48694,15.1813456 -4.95485,3.902765 -11.95435,6.3688555 -21.02176,7.4237818 -8.6182,1.0034927 -17.24087,2.0130121 -25.86116,3.0314478 -0.0289,10.7710138 0.2294,-48.9697822 0.20865,-38.1476642 8.61549,-1.066898 17.23419,-2.128263 25.84819,-3.182942 2.83104,-0.346496 5.46084,-0.506989 7.88917,-0.48057 z m 1079.70467,22.635756 -69.3071,12.0273821 c 0,0 11.4531,23.1910419 41.8157,18.8948049 38.3806,-5.581252 27.4914,-30.922187 27.4914,-30.922187 z M 1187.4592,9.259946 c 0,0 -917.08599,82.454982 -929.11717,83.743135 -12.60324,1.288153 -49.26244,9.875919 -68.1671,31.778399 -18.90396,22.75943 -17.1821,39.50913 -14.89207,50.24596 8.59165,34.78442 34.36958,42.08519 34.36958,42.08519 l -72.1762,6.87072 0,-128.834091 c 0.57205,-7.731805 -2.86359,-12.883921 -12.0272,-15.029686 -5.72965,-1.28807 -20.62232,-2.147334 -33.797518,-3.007259 C 77.330214,75.824162 75.611046,87.417536 75.611046,87.417536 L 76.187395,230.854 0,237.72637 0,253.1866 275.52463,229.99622 c 0,0 -56.70599,-16.74772 -70.45555,-48.09648 -14.89325,-33.06986 20.62214,-66.13764 49.26166,-70.0002 38.95273,-5.58373 89.93315,-8.59115 89.93315,-8.59115 l 50.40806,3.43614 1093.51705,94.05001 0,-25.7671 -72.1718,-5.58398 0.572,-122.390684 c 0,0 1.7194,-12.456271 -17.1806,-12.456271 -11.4624,0.428807 -13.1813,0.428972 -34.3803,0.428972 -14.8909,0 -14.8899,11.16787 -14.8899,11.16787 l 0,11.595191 z M 79.047885,11.836664 c 0,0 -10.30872,31.349342 31.509085,35.216112 43.5321,3.433836 43.5319,-26.199208 43.5319,-26.199208 z m 1103.256015,17.606488 167.2603,47.669162 0.5742,86.319856 -882.71608,-71.717407 z"
       id="path16"
       inkscape:connector-curvature="0"
       sodipodi:nodetypes="ccccccccccccccsccccccccccccccccccccccccccccccccccccccccccccccccccccccccccccccscccccccccccccccccscccccccccccccccccccccccscccccccccccccccccccccccccccccccccccccccccccccccccccccccccccccccccccccccccccccccccccccccccccccccccscccccccccccccccccccccccccccccccccccccccccccccccccccccccccccccscccccccccccc" />
    <path
       style="fill:#e5ff80;fill-rule:evenodd;stroke:none;stroke-width:1px;stroke-linecap:butt;stroke-linejoin:miter;stroke-opacity:1"
       d="M 165.41421,-1062.1231 106,-45.6378 l 0,26 c 0,0 -1.3701,4.9759 0.044,9.2185 1.4142,4.2427 5.6568,9.1924 10.6066,8.4853 4.9497,-0.7071 11.3137,2.1213 15.5563,-4.2426 4.2427,-6.364 14.1422,-50.91173 14.1422,-50.91173 L 396.66492,-1061.18 Z"
       id="path4151"
       inkscape:connector-curvature="0"
       sodipodi:nodetypes="ccccssccc"
       clip-path="url(#clipPath4174)"
       transform="matrix(0.99992537,0,0,0.99996406,0,0.03781833)" />
    <path
       style="fill:#80ff80;fill-rule:evenodd;stroke:none;stroke-width:1px;stroke-linecap:butt;stroke-linejoin:miter;stroke-opacity:1"
       d="m 1014,-1088.6378 341,1051 3,9 c 0,0 -0.5,2.5 6,2.5 6.5,0 11,-2 12.5,-6 1.5,-4 0.5,-17.5 -1,-27.99999 -1.5,-10.5 -15.5,-118 -15.5,-118 l -118,-935.50001 z"
       id="path4153"
       inkscape:connector-curvature="0"
       sodipodi:nodetypes="cccsssccc"
       clip-path="url(#clipPath4170)"
       transform="matrix(0.99992537,0,0,0.99996406,0,0.03781833)" />
    <g
       transform="matrix(0.47712241,0,0,0.47712241,90.79618,462.3538)"
       id="layer1-6"
       inkscape:label="Layer 1"
       style="opacity:0.8;fill:#000000;stroke:#1a1a1a">
      <rect
         y="571.26709"
         x="170.21095"
         height="63.1437"
         width="383.60046"
         id="rect2991-1"
         style="opacity:0.65;fill:#000000;fill-opacity:1;stroke:#1a1a1a;stroke-width:1.46606898" />
      <rect
         y="378.61728"
         x="104.7375"
         height="191.16422"
         width="127.187"
         id="rect3031"
         style="opacity:0.75;fill:#000000;fill-opacity:1;stroke:#1a1a1a;stroke-width:1.51560342" />
      <rect
         y="314.28412"
         x="491.52747"
         height="319.98737"
         width="62.384762"
         id="rect3011-3"
         style="opacity:0.55;fill:#000000;fill-opacity:1;stroke:#1a1a1a;stroke-width:1.55368268" />
      <rect
         y="378.5997"
         x="491.55362"
         height="191.17474"
         width="126.78419"
         id="rect3031-4"
         style="opacity:0.6;fill:#000000;fill-opacity:1;stroke:#1a1a1a;stroke-width:1.5132432" />
      <rect
         y="314.28082"
         x="170.17232"
         height="319.99402"
         width="61.851158"
         id="rect3011"
         style="opacity:0.4;fill:#000000;fill-opacity:1;stroke:#1a1a1a;stroke-width:1.54703987" />
      <rect
         y="314.23901"
         x="170.13057"
         height="62.876171"
         width="383.8732"
         id="rect2991"
         style="opacity:0.45;fill:#000000;fill-opacity:1;stroke:#1a1a1a;stroke-width:1.46348" />
      <rect
         y="249.95135"
         x="299.09814"
         height="512.47845"
         width="126.2014"
         id="rect2989"
         style="opacity:0.8;fill:#000000;fill-opacity:1;stroke:#1a1a1a;stroke-width:2.13838387" />
    </g>
    <text
       xml:space="preserve"
       style="font-style:normal;font-variant:normal;font-weight:normal;font-stretch:normal;font-size:42.08818054px;line-height:125%;font-family:'Ubuntu Mono';-inkscape-font-specification:'Ubuntu Mono';letter-spacing:0px;word-spacing:0px;opacity:0.8;fill:#000000;fill-opacity:1;stroke:none;stroke-width:1px;stroke-linecap:butt;stroke-linejoin:miter;stroke-opacity:1;"
       x="137.23041"
       y="872.86853"
       id="text4176"
       sodipodi:linespacing="125%"><tspan
         sodipodi:role="line"
         id="tspan4178"
         x="137.23041"
         y="872.86853">falanster.by</tspan></text>
    <g
       id="g4185"
       transform="translate(225.9989,894.5986)"
       style="opacity:0.8;fill:#000000;stroke:none">
      <path
         inkscape:connector-curvature="0"
         d="m 37.443,-3.5 c 8.988,0 16.57,3.085 22.742,9.257 6.208,6.21 9.315,13.791 9.315,22.743 0,8.991 -3.049,16.476 -9.145,22.456 C 53.879,57.319 46.242,60.5 37.443,60.5 28.794,60.5 21.29,57.356 14.929,51.07 8.644,44.784 5.5,37.262 5.5,28.5 5.5,19.739 8.644,12.158 14.929,5.758 21.101,-0.415 28.604,-3.5 37.443,-3.5 Z m 0.114,5.772 c -7.276,0 -13.428,2.553 -18.457,7.657 -5.22,5.334 -7.829,11.525 -7.829,18.572 0,7.086 2.59,13.22 7.77,18.398 5.181,5.182 11.352,7.771 18.514,7.771 7.123,0 13.334,-2.607 18.629,-7.828 5.029,-4.838 7.543,-10.952 7.543,-18.343 0,-7.276 -2.553,-13.465 -7.656,-18.571 C 50.967,4.824 44.795,2.272 37.557,2.272 Z m 8.572,18.285 0,13.085 -3.656,0 0,15.542 -9.944,0 0,-15.541 -3.656,0 0,-13.086 c 0,-0.572 0.2,-1.057 0.599,-1.457 0.401,-0.399 0.887,-0.6 1.457,-0.6 l 13.144,0 c 0.533,0 1.01,0.2 1.428,0.6 0.417,0.4 0.628,0.886 0.628,1.457 z M 33.042,12.329 c 0,-3.008 1.485,-4.514 4.458,-4.514 2.973,0 4.457,1.504 4.457,4.514 0,2.971 -1.486,4.457 -4.457,4.457 -2.971,0 -4.458,-1.486 -4.458,-4.457 z"
         id="path4187"
         style="fill:#000000;stroke:none" />
    </g>
    <path
       inkscape:connector-curvature="0"
       d="m 184.8269,891.5415 c 8.951,0 16.572,3.125 22.857,9.372 3.008,3.009 5.295,6.448 6.857,10.314 1.561,3.867 2.344,7.971 2.344,12.314 0,4.381 -0.773,8.486 -2.314,12.313 -1.543,3.828 -3.82,7.21 -6.828,10.143 -3.123,3.08496 -6.666,5.44796 -10.629,7.08596 -3.961,1.638 -8.057,2.457 -12.285,2.457 -4.228,0 -8.276,-0.808 -12.143,-2.429 -3.866,-1.618 -7.333,-3.961 -10.4,-7.02696 -3.067,-3.066 -5.4,-6.524 -7,-10.372 -1.6,-3.848 -2.4,-7.904 -2.4,-12.171 0,-4.229 0.809,-8.295 2.428,-12.2 1.619,-3.905 3.972,-7.4 7.057,-10.486 6.095,-6.208 13.58,-9.314 22.456,-9.314 z m 0.116,5.772 c -7.314,0 -13.467,2.553 -18.458,7.657 -2.515,2.553 -4.448,5.419 -5.8,8.6 -1.354,3.181 -2.029,6.505 -2.029,9.972 0,3.429 0.675,6.734 2.029,9.913 1.353,3.183 3.285,6.021 5.8,8.516 2.514,2.496 5.351,4.399 8.515,5.715 3.161,1.31396 6.476,1.97096 9.943,1.97096 3.428,0 6.75,-0.665 9.973,-1.99896 3.219,-1.335 6.121,-3.257 8.713,-5.771 4.99,-4.876 7.484,-10.99 7.484,-18.344 0,-3.543 -0.648,-6.895 -1.943,-10.057 -1.293,-3.162 -3.18,-5.98 -5.654,-8.458 -5.146,-5.143 -11.335,-7.715 -18.573,-7.715 z m -0.401,20.915 -4.287,2.229 c -0.458,-0.951 -1.019,-1.619 -1.685,-2 -0.667,-0.38 -1.286,-0.571 -1.858,-0.571 -2.856,0 -4.286,1.885 -4.286,5.657 0,1.714 0.362,3.084 1.085,4.113 0.724,1.029 1.791,1.544 3.201,1.544 1.867,0 3.181,-0.915 3.944,-2.743 l 3.942,2 c -0.838,1.563 -2,2.791 -3.486,3.686 -1.484,0.896 -3.123,1.343 -4.914,1.343 -2.857,0 -5.163,-0.875 -6.915,-2.629 -1.752,-1.752 -2.628,-4.19 -2.628,-7.313 0,-3.048 0.886,-5.466 2.657,-7.257 1.771,-1.79 4.009,-2.686 6.715,-2.686 3.963,0 6.8,1.541 8.515,4.627 z m 18.457,0 -4.229,2.229 c -0.457,-0.951 -1.02,-1.619 -1.686,-2 -0.668,-0.38 -1.307,-0.571 -1.914,-0.571 -2.857,0 -4.287,1.885 -4.287,5.657 0,1.714 0.363,3.084 1.086,4.113 0.723,1.029 1.789,1.544 3.201,1.544 1.865,0 3.18,-0.915 3.941,-2.743 l 4,2 c -0.875,1.563 -2.057,2.791 -3.541,3.686 -1.486,0.896 -3.105,1.343 -4.857,1.343 -2.896,0 -5.209,-0.875 -6.941,-2.629 -1.736,-1.752 -2.602,-4.19 -2.602,-7.313 0,-3.048 0.885,-5.466 2.658,-7.257 1.77,-1.79 4.008,-2.686 6.713,-2.686 3.962,0 6.783,1.541 8.458,4.627 z"
       id="path4204"
       style="opacity:0.8;fill:#000000;stroke:none" />
    <g
       id="g4220"
       transform="translate(304.8952,895.1234)"
       style="opacity:0.8;fill:#000000;stroke:none">
      <path
         inkscape:connector-curvature="0"
         d="m 37.443,-3.5 c 8.951,0 16.531,3.105 22.742,9.315 6.208,6.172 9.315,13.733 9.315,22.685 0,8.954 -3.049,16.457 -9.145,22.514 C 53.918,57.338 46.279,60.5 37.443,60.5 28.794,60.5 21.29,57.357 14.929,51.071 8.644,44.786 5.5,37.264 5.5,28.501 5.5,19.778 8.644,12.216 14.929,5.816 21.138,-0.395 28.643,-3.5 37.443,-3.5 Z m 0.114,5.772 c -7.276,0 -13.428,2.572 -18.457,7.715 -5.22,5.296 -7.829,11.467 -7.829,18.513 0,7.125 2.59,13.257 7.77,18.4 5.181,5.182 11.352,7.771 18.514,7.771 7.123,0 13.334,-2.609 18.629,-7.828 5.029,-4.876 7.543,-10.99 7.543,-18.343 0,-7.313 -2.553,-13.485 -7.656,-18.513 C 51.004,4.842 44.832,2.272 37.557,2.272 Z M 23.271,23.985 c 0.609,-3.924 2.189,-6.962 4.742,-9.114 2.552,-2.152 5.656,-3.228 9.314,-3.228 5.027,0 9.029,1.62 12,4.856 2.971,3.238 4.457,7.391 4.457,12.457 0,4.915 -1.543,9 -4.627,12.256 -3.088,3.256 -7.086,4.886 -12.002,4.886 -3.619,0 -6.743,-1.085 -9.371,-3.257 -2.629,-2.172 -4.209,-5.257 -4.743,-9.257 l 8.059,0 c 0.19,3.886 2.533,5.829 7.029,5.829 2.246,0 4.057,-0.972 5.428,-2.914 1.373,-1.942 2.059,-4.534 2.059,-7.771 0,-3.391 -0.629,-5.971 -1.885,-7.743 -1.258,-1.771 -3.066,-2.657 -5.43,-2.657 -4.268,0 -6.667,1.885 -7.2,5.656 l 2.343,0 -6.342,6.343 -6.343,-6.343 2.512,10e-4 0,0 z"
         id="path4222"
         style="fill:#000000;stroke:none" />
    </g>
    <text
       xml:space="preserve"
       style="font-style:normal;font-variant:normal;font-weight:bold;font-stretch:normal;font-size:132.8780365px;line-height:125%;font-family:sans-serif;-inkscape-font-specification:'sans-serif Bold';letter-spacing:0px;word-spacing:0px;fill:#1a1a1a;fill-opacity:1;stroke:none;stroke-width:1px;stroke-linecap:butt;stroke-linejoin:miter;stroke-opacity:1"
       x="717.65363"
       y="632.55402"
       id="text4233"
       sodipodi:linespacing="125%"><tspan
         sodipodi:role="line"
         id="tspan4235"
         x="717.65363"
         y="632.55402">пампуй!</tspan></text>
    <text
       xml:space="preserve"
       style="font-style:normal;font-weight:normal;font-size:132.8931427px;line-height:125%;font-family:sans-serif;letter-spacing:0px;word-spacing:0px;fill:#1a1a1a;fill-opacity:1;stroke:none;stroke-width:1px;stroke-linecap:butt;stroke-linejoin:miter;stroke-opacity:1"
       x="579.28387"
       y="746.75671"
       id="text4237"
       sodipodi:linespacing="125%"><tspan
         sodipodi:role="line"
         id="tspan4239"
         x="579.28387"
         y="746.75671">шыфруй!</tspan></text>
    <text
       xml:space="preserve"
       style="font-style:italic;font-variant:normal;font-weight:normal;font-stretch:normal;font-size:133.50642395px;line-height:125%;font-family:sans-serif;-inkscape-font-specification:'sans-serif Italic';letter-spacing:0px;word-spacing:0px;fill:#1a1a1a;fill-opacity:1;stroke:none;stroke-width:1px;stroke-linecap:butt;stroke-linejoin:miter;stroke-opacity:1"
       x="651.67578"
       y="873.35876"
       id="text4241"
       sodipodi:linespacing="125%"><tspan
         sodipodi:role="line"
         id="tspan4243"
         x="651.67578"
         y="873.35876">змяняйся!</tspan></text>
  </g>
</svg>
