<?xml version="1.0" encoding="UTF-8" standalone="no"?>
<!-- Created with Inkscape (http://www.inkscape.org/) -->

<svg
   xmlns:dc="http://purl.org/dc/elements/1.1/"
   xmlns:cc="http://creativecommons.org/ns#"
   xmlns:rdf="http://www.w3.org/1999/02/22-rdf-syntax-ns#"
   xmlns:svg="http://www.w3.org/2000/svg"
   xmlns="http://www.w3.org/2000/svg"
   xmlns:sodipodi="http://sodipodi.sourceforge.net/DTD/sodipodi-0.dtd"
   xmlns:inkscape="http://www.inkscape.org/namespaces/inkscape"
   id="svg2"
   version="1.1"
   inkscape:version="0.48.3.1 r9886"
   width="242.5"
   height="242.5"
   xml:space="preserve"
   sodipodi:docname="21th_Century_Pirates_2.svg"><metadata
     id="metadata8"><rdf:RDF><cc:Work
         rdf:about=""><dc:format>image/svg+xml</dc:format><dc:type
           rdf:resource="http://purl.org/dc/dcmitype/StillImage" /><dc:title></dc:title></cc:Work></rdf:RDF></metadata><defs
     id="defs6"><inkscape:path-effect
       effect="envelope"
       id="path-effect3008"
       is_visible="true"
       yy="true"
       xx="true"
       bendpath1="m 34.180532,-73.046703 117.588978,0"
       bendpath2="m 151.76951,-73.046703 -0.41102,26.986211"
       bendpath3="m 34.180532,-50.30867 117.177958,5.27572"
       bendpath4="m 34.180532,-73.046703 0,22.738033"
       bendpath2-nodetypes="cc"
       bendpath3-nodetypes="cc" /></defs><sodipodi:namedview
     pagecolor="#ffffff"
     bordercolor="#666666"
     borderopacity="1"
     objecttolerance="10"
     gridtolerance="10"
     guidetolerance="10"
     inkscape:pageopacity="0"
     inkscape:pageshadow="2"
     inkscape:window-width="1301"
     inkscape:window-height="744"
     id="namedview4"
     showgrid="false"
     inkscape:zoom="15.571134"
     inkscape:cx="102.47365"
     inkscape:cy="171.39756"
     inkscape:window-x="65"
     inkscape:window-y="24"
     inkscape:window-maximized="1"
     inkscape:current-layer="g10"
     showguides="true"
     inkscape:guide-bbox="true" /><g
     id="g10"
     inkscape:groupmode="layer"
     inkscape:label="ink_ext_XXXXXX"
     transform="matrix(1.25,0,0,-1.25,0,242.5)"><path
   inkscape:connector-curvature="0"
   id="path14"
   style="fill:#ffffff;fill-opacity:1;fill-rule:evenodd;stroke:none"
   d="m 0.259766,0.566797 192.756004,0 0,192.756003 -192.756004,0 0,-192.756003 z" /><path
   inkscape:connector-curvature="0"
   id="path16"
   style="fill:#231f20;fill-opacity:1;fill-rule:evenodd;stroke:none"
   d="m 98.15,151.566 c 1.8004,0.288 5.185,0.072 7.561,-1.656 2.593,-1.945 4.681,-5.185 4.321,-8.93 -0.504,-4.537 -1.584,-7.417 -5.473,-10.586 -4.7528,-3.888 -9.3613,-4.104 -11.5219,-3.96 -1.5121,0.144 -5.8328,1.08 -8.2094,4.969 -1.5121,2.664 -1.0078,6.409 -0.5757,8.065 0.432,1.656 3.1683,6.049 5.9765,8.281 2.8086,2.161 6.1934,3.601 7.9215,3.817 l 0,0" /><path
   inkscape:connector-curvature="0"
   id="path18"
   style="fill:#231f20;fill-opacity:1;fill-rule:evenodd;stroke:none"
   d="m 3.09453,20.9363 0,5.977 34.63747,3.8887 c 0,0 -7.1289,2.8085 -8.8574,8.0652 -1.8723,5.5453 2.5926,11.0902 6.193,11.7379 4.8969,0.9363 11.3058,1.4406 11.3058,1.4406 l 0,0 6.3371,-0.5762 137.4705,-15.7707 0,-14.7625 -187.08647,0" /><path
   inkscape:connector-curvature="0"
   id="path20"
   style="fill:#231f20;fill-opacity:1;fill-rule:evenodd;stroke:none"
   d="M 61.8562,53.9898 151.727,64.4316 172.754,56.4383 172.826,41.9637 61.8562,53.9898" /><path
   inkscape:connector-curvature="0"
   id="path22"
   style="fill:#231f20;fill-opacity:1;fill-rule:evenodd;stroke:none"
   d="m 190.181,172.954 -23.62,0 9.578,-97.4325 c 0,0 -0.216,-1.6563 -1.368,-1.8723 -1.153,-0.2164 -1.369,0.936 -1.369,0.936 l 0,0 -4.248,16.1304 -17.499,6.2653 -18.219,-17.0668 15.122,-9.7215 -14.546,-1.7281 -8.209,5.2566 -6.41,-6.841 -13.97,-1.6563 12.17,12.6739 -18.7231,10.8019 -8.8574,-1.3684 c 0,0 7.6336,-2.2324 10.7305,-4.8246 3.024,-2.5925 3.672,-5.3289 2.952,-9.7937 -0.72,-4.4649 -5.6169,-7.9934 -5.6169,-7.9934 l 0,0 -28.5886,-3.4566 -3.3129,1.6562 c 0,0 -4.2485,2.1606 -4.4645,6.7692 -0.216,4.1769 4.4645,10.7297 4.4645,10.7297 l 0,0 -7.2731,2.0886 0,-6.4812 -14.5461,-2.232 0,-5.0411 13.1059,1.7282 0,-5.9051 -12.8899,-1.8723 0.0719,-4.2484 -8.6414,-1.1524 0,20.1633 -2.8805,-0.432 0,4.2488 118.5316,20.8836 16.347,-6.1215 -5.402,22.1795 -10.729,4.033 -7.489,-11.666 -0.072,-6.337 -5.762,-1.152 0,6.265 -4.896,4.897 -6.337,1.44 c 0,0 1.368,-0.864 1.872,-1.152 1.584,-1.225 2.017,-2.448 2.017,-4.393 0,-2.664 -3.529,-4.105 -3.529,-4.105 l 0,0 5.977,-3.888 -6.049,-1.225 -6.841,3.529 -0.072,-4.6805 -5.113,-0.9364 0,13.6829 -4.105,1.224 c 0,0 0,-9.434 -0.072,-12.89 -0.072,-2.6649 -2.952,-3.3852 -2.952,-3.3852 0,0 -6.769,-1.8723 -9.1457,-1.152 -2.3046,0.6481 -2.3046,3.0242 -2.3046,3.0242 l 0,9.578 -2.0883,1.368 -0.0719,-4.177 -3.9605,-0.936 0.0718,-10.8013 -4.9687,-0.9364 0.0719,10.5857 -4.0325,-0.72 -0.0718,2.664 -2.5207,1.08 0,-14.6901 -4.7528,-0.8637 -6.5531,5.6887 0.0723,-6.841 -4.609,-0.8641 0.0718,12.3142 -3.6003,1.08 0,-3.3126 -6.0493,-1.5843 0,-2.5926 5.2571,1.1523 0,-3.0246 -5.2571,-1.1523 0,-2.3762 5.9051,0.9363 0.0723,-2.0886 -10.4418,-1.8723 0.0719,10.4418 c 0,0 -1.2243,0.2879 -4.4649,0.7203 1.5125,-1.0082 1.1524,-1.8004 1.1524,-1.8004 l 0,0 -2.3762,-2.3766 c 0,0 -0.9363,1.2243 -3.2406,0.7204 -1.8004,-0.3602 -2.5926,-2.0887 -2.5926,-3.7446 0.0719,-1.7281 1.0082,-3.8886 3.3125,-3.5289 2.0164,0.3606 3.0246,2.3766 3.0246,2.3766 l 0,0 2.8082,-1.4402 -1.4398,-2.0883 c 0,0 -7.4895,-1.4403 -8.7133,-1.5844 -2.5207,0.9363 -3.0969,3.0969 -3.1688,5.1129 -0.216,3.8887 2.3043,6.5531 2.3043,6.5531 l 0,0 -2.8082,1.5844 0,3.0238 118.3153,26.213 9.721,-3.745 -3.888,15.627 -7.993,2.664 -0.072,-11.378 -3.457,-0.72 c 0,0 0,6.266 0,8.066 -0.072,2.808 -0.72,3.384 -1.728,3.456 -1.728,0.072 -2.233,-1.368 -2.233,-3.745 0,-2.376 0,-8.713 0,-8.713 l 0,0 -4.032,-0.864 -0.072,18.507 -23.261,9.793 c 0,0 1.153,-1.079 2.449,-2.664 2.881,-3.528 4.249,-7.345 3.169,-14.042 -1.009,-6.625 -4.753,-11.234 -4.753,-11.234 -2.448,-4.176 -8.354,-8.137 -8.354,-8.137 0,0 -14.1859,-3.385 -18.0742,-3.745 -3.8172,-0.36 -8.7855,3.168 -11.234,5.617 -2.4484,2.448 -3.8168,5.617 -4.5367,8.713 -0.7203,3.169 1.4399,11.594 1.4399,11.594 l 0,0 -5.2567,2.809 c 0,0 0.9364,-2.017 1.2961,-3.097 0.3602,-1.008 1.0086,-2.448 0.1442,-6.553 -0.5039,-2.952 -2.1602,-4.753 -2.1602,-4.753 l 0,0 -12.2422,-15.05 14.6903,2.808 0,-5.977 -34.3493,-7.705 0,3.889 c 0,0 20.7395,23.62 21.9633,25.348 1.8723,2.593 2.5926,4.897 0.216,6.769 -2.448,1.944 -5.0406,1.08 -7.705,-1.152 -2.3762,-2.017 -3.6004,-6.481 -3.6004,-6.481 l 0,0 -10.5141,-1.729 2.6645,8.066 c 3.0246,7.129 12.3859,10.37 16.6347,10.874 2.3762,0.288 6.2653,-1.081 6.2653,-1.081 l 0,0 12.6019,-5.616 c 0,0 0.432,0.648 1.0801,1.8 1.7281,3.24 9.4336,11.594 12.2418,12.962 5.2574,2.52 10.8019,3.385 15.4107,2.808 2.808,-0.36 9.146,-2.808 9.146,-2.808 l 0,0 24.628,-10.297 -0.072,7.057 4.248,1.512 12.386,-5.257 -5.113,21.459 -110.3935,0.145 c 0,0 -18.1473,-99.0888 -18.507,-101.2493 -0.2883,-1.5844 -1.0805,-2.2324 -2.7367,-1.8723 -1.4399,0.3602 -1.0801,2.6645 -1.0801,2.6645 l 0,0 4.3207,100.4571 -17.93087,0 0,-143.4481 9.57777,1.1523 -0.0723,24.052 c 0,0 0.216,1.9441 2.0164,1.7281 1.6563,-0.1442 3.5285,-0.2883 4.2488,-0.5043 1.152,-0.3598 1.584,-1.2238 1.5121,-2.5203 0,-1.8723 0,-21.6035 0,-21.6035 l 0,0 9.0735,1.1523 c 0,0 -3.2406,1.2242 -4.3207,7.057 -0.2879,1.8004 -0.5043,4.609 1.8722,8.4254 2.3766,3.6727 6.9852,5.1129 8.5696,5.3289 1.5125,0.216 116.8031,14.0422 116.8031,14.0422 l 0,0 20.451,-8.1375 0,1.9445 c 0,0 0,1.8727 1.872,1.8727 2.665,0 2.881,0 4.322,0.0719 2.376,0 2.16,-2.0887 2.16,-2.0887 l 0,0 -0.072,-20.523 9.073,-0.9364 0,132.9345 z M 16.993,61.4789 c -5.2571,0.6484 -3.961,5.9051 -3.961,5.9051 l 0,0 9.4336,-1.5121 c 0,0 0,-4.9688 -5.4726,-4.393 l 0,0 z m 159.578,5.4731 c -3.817,-0.7204 -5.257,3.1683 -5.257,3.1683 l 0,0 8.713,2.0168 c 0,0 1.369,-4.2492 -3.456,-5.1851 l 0,0 z m -41.053,73.955 -2.952,-0.719 0,4.392 -3.6,-0.864 0,-18.284 3.6,1.08 0,10.003 c 1.152,0.36 2.952,0.936 2.952,0.936 l 0,3.456" /><path
   inkscape:connector-curvature="0"
   id="path24"
   style="fill:#231f20;fill-opacity:1;fill-rule:evenodd;stroke:none"
   d="m 102.111,112.175 4.105,-2.088 c 0,0 0.072,-7.345 0.072,-8.425 -0.072,-1.08 -0.577,-1.8007 -2.017,-2.0886 -1.44,-0.2882 -2.16,-0.2164 -2.16,1.7286 0,1.944 0,10.873 0,10.873 l 0,0" /><path
   inkscape:connector-curvature="0"
   id="path26"
   style="fill:#231f20;fill-opacity:1;fill-rule:evenodd;stroke:none"
   d="m 121.266,111.743 c 0,0 2.088,0.216 2.808,0 0.721,-0.288 1.08,-0.936 0.936,-1.872 -0.144,-0.936 -0.792,-1.224 -1.368,-1.368 -0.504,-0.216 -2.376,-0.505 -2.376,-0.505 l 0,3.745" /><path
   inkscape:connector-curvature="0"
   id="path28"
   style="fill:#231f20;fill-opacity:1;fill-rule:evenodd;stroke:none"
   d="m 136.676,118.945 6.842,-1.441 -2.377,-3.672 -4.465,5.113" /><path
   inkscape:connector-curvature="0"
   id="path30"
   style="fill:#231f20;fill-opacity:1;fill-rule:evenodd;stroke:none"
   d="m 66.393,105.406 8.9293,-2.808 -0.0719,-5.8332 -8.8574,8.6412" /><path
   inkscape:connector-curvature="0"
   id="path36"
   style="fill:#231f20;fill-opacity:1;fill-rule:evenodd;stroke:none"
   d="m 157.272,140.476 -2.377,9.218 -12.674,5.329 0,-12.243 c 0,0 1.008,1.657 3.313,1.873 2.376,0.216 3.672,-1.368 3.672,-1.368 l 0,0 8.066,-2.809" /><path
   style="fill:#231f20;fill-opacity:1;stroke:#000000;stroke-width:0.80000001px;stroke-linecap:butt;stroke-linejoin:miter;stroke-opacity:0"
   d="M 31.824299,77.017712 C 35.166577,58.417204 34.585311,56.092141 34.585311,56.092141 L 152.00099,70.042524 151.71036,96.780747 z"
   id="path3025"
   inkscape:connector-curvature="0"
   sodipodi:nodetypes="ccccc" /><g
   transform="matrix(1,0.16422782,0,-1,0,0)"
   style="font-size:31.19054985000000002px;font-style:normal;font-weight:normal;line-height:125%;letter-spacing:0px;word-spacing:0px;fill:#ffffff;fill-opacity:1;stroke:none;font-family:Sans"
   id="text3814"
   inkscape:path-effect="#path-effect3008"><path
     d="m 34.147964,-72.97336 c 3.244275,-0.02466 6.488457,-0.03911 9.732574,-0.04706 2.893799,-0.0071 5.135036,0.641428 6.696295,1.951092 1.571246,1.299434 2.351056,3.16173 2.340144,5.59264 -0.011,2.441329 -0.795901,4.329058 -2.352321,5.631923 -1.546285,1.292591 -3.765062,1.904408 -6.661727,1.853838 -1.290801,-0.02253 -2.581779,-0.04338 -3.872935,-0.06228 0.009,2.663642 0.03243,5.338342 -0.04235,8.025819 -1.947596,-0.07448 -3.895208,-0.144644 -5.842843,-0.209403 0.08786,-3.787188 0.002,-7.578472 0.0015,-11.367949 -5.68e-4,-3.789478 0.08413,-7.577149 0.0017,-11.368617 z m 5.903512,4.232411 c -0.0031,2.127017 -0.02194,4.25693 -0.02617,6.392642 1.08385,0.0072 2.167563,0.0158 3.251139,0.02551 1.139523,0.01022 2.020031,-0.259204 2.642582,-0.811029 0.622558,-0.562127 0.936468,-1.360459 0.941404,-2.390999 0.0049,-1.03051 -0.302297,-1.823945 -0.921437,-2.38037 -0.61917,-0.55639 -1.49894,-0.834576 -2.63796,-0.835679 -1.083099,-0.001 -2.166285,-0.0011 -3.249558,-7.2e-5 z"
     style="font-weight:bold;-inkscape-font-specification:Sans Bold;fill:#ffffff"
     id="path2996"
     inkscape:original-d="m 34.180532,-73.046703 9.731817,0 c 2.893639,2.3e-5 5.112105,0.644749 6.655406,1.93418 1.553414,1.279319 2.330131,3.106889 2.330153,5.482714 -2.2e-5,2.386008 -0.776739,4.223731 -2.330153,5.513173 -1.543301,1.279309 -3.761767,1.918958 -6.655406,1.91895 l -3.868359,0 0,7.889016 -5.863458,0 0,-22.738033 m 5.863458,4.249104 0,6.35081 3.243939,0 c 1.137142,1.2e-5 2.015391,-0.274124 2.634749,-0.822407 0.619328,-0.558411 0.928999,-1.345282 0.929015,-2.360613 -1.6e-5,-1.015301 -0.309687,-1.797095 -0.929015,-2.345383 -0.619358,-0.548254 -1.497607,-0.822389 -2.634749,-0.822407 l -3.243939,0" /><path
     d="m 56.99379,-73.024667 c 1.954514,0.0025 3.909016,0.0058 5.863509,0.0097 0.12909,3.891975 0.05916,7.793156 0.04259,11.771862 -0.01657,3.978706 0.02023,8.034937 -0.148559,12.225507 -1.947548,-0.09383 -3.895094,-0.186798 -5.842641,-0.27814 0.155632,-4.112061 0.110512,-8.115202 0.1236,-12.05343 0.01309,-3.938227 0.08438,-7.811541 -0.0385,-11.675451 z"
     style="font-weight:bold;-inkscape-font-specification:Sans Bold;fill:#ffffff"
     id="path2998"
     inkscape:original-d="m 57.025173,-73.046703 5.863458,0 0,22.738033 -5.863458,0 0,-22.738033" /><path
     d="m 77.010549,-62.340708 c 1.228046,0.02272 2.107376,-0.206211 2.638256,-0.686853 0.540999,-0.480439 0.815603,-1.281833 0.821039,-2.395904 0.0054,-1.103222 -0.262639,-1.891732 -0.800899,-2.369749 -0.528136,-0.47788 -1.407345,-0.720899 -2.635943,-0.731716 -0.822457,-0.0072 -1.644961,-0.01446 -2.467511,-0.02166 0.0064,2.038761 -0.0091,4.08809 -0.02143,6.160445 0.822237,0.01508 1.6444,0.03024 2.466488,0.04544 z m -2.491506,4.309637 c -0.01838,3.112624 -0.02978,6.293333 -0.173427,9.577175 -1.947569,-0.09474 -3.89513,-0.189851 -5.842685,-0.284748 0.180061,-4.265424 0.150601,-8.372915 0.17058,-12.391898 0.01998,-4.018983 0.0894,-7.949457 -0.04413,-11.872353 2.985022,0.0065 5.970031,0.01305 8.955036,0.01855 2.995144,0.0055 5.209816,0.537794 6.621651,1.609803 1.421951,1.072093 2.137668,2.767515 2.128716,5.097939 -0.0062,1.611724 -0.382417,2.940094 -1.120216,3.97251 -0.727695,1.032628 -1.823404,1.78514 -3.287242,2.250049 0.7999,0.216856 1.511798,0.686689 2.135289,1.416927 0.633671,0.71934 1.270362,1.811585 1.903442,3.30292 1.033507,2.45068 2.054135,4.967361 2.99409,7.576972 -2.074086,-0.0959 -4.14816,-0.19343 -6.222223,-0.292141 -0.820914,-2.249808 -1.704542,-4.4325 -2.602939,-6.565129 -0.543015,-1.287636 -1.105441,-2.156843 -1.680182,-2.629476 -0.564627,-0.472335 -1.323883,-0.718743 -2.277301,-0.743728 -0.552786,-0.01448 -1.105604,-0.02894 -1.658455,-0.04337 z"
     style="font-weight:bold;-inkscape-font-specification:Sans Bold;fill:#ffffff"
     id="path3000"
     inkscape:original-d="m 76.99139,-62.964601 c 1.228522,1.2e-5 2.10677,-0.228434 2.634749,-0.685339 0.538103,-0.456879 0.807162,-1.208214 0.807177,-2.254005 -1.5e-5,-1.035607 -0.269074,-1.776788 -0.807177,-2.223545 -0.527979,-0.446721 -1.406227,-0.670091 -2.634749,-0.670109 l -2.467221,0 0,5.832998 2.467221,0 m -2.467221,4.051116 0,8.604815 -5.863458,0 0,-22.738033 8.955099,0 c 2.995172,2.3e-5 5.188255,0.502605 6.579257,1.507747 1.401118,1.005184 2.101686,2.594154 2.101707,4.766915 -2.1e-5,1.502684 -0.365535,2.736294 -1.096543,3.700832 -0.720894,0.964563 -1.812359,1.675284 -3.274399,2.132166 0.802084,0.182768 1.517882,0.599047 2.147397,1.24884 0.639631,0.639659 1.284357,1.614363 1.934179,2.924114 l 3.18302,6.457419 -6.244202,0 -2.771816,-5.650241 c -0.558438,-1.137149 -1.127016,-1.913866 -1.705733,-2.330154 -0.56859,-0.416271 -1.330077,-0.624411 -2.284464,-0.62442 l -1.660044,0" /><path
     d="m 106.32268,-52.016227 c -3.04556,-0.09772 -6.09173,-0.19855 -9.138503,-0.302216 -0.510789,1.596059 -1.034649,3.215165 -1.591973,4.861969 -1.957761,-0.08692 -3.915511,-0.175586 -5.873249,-0.265735 1.605882,-4.452257 2.997838,-8.71447 4.433857,-12.881789 1.436018,-4.167319 2.916099,-8.239743 4.189536,-12.365048 2.330122,-0.0012 4.660252,-0.0035 6.990372,-0.0065 1.52674,4.178216 2.83977,8.351618 4.19539,12.673741 1.35562,4.322122 2.75382,8.792966 3.94223,13.586661 -1.95782,-0.07519 -3.91564,-0.15237 -5.87344,-0.231544 -0.3982,-1.728594 -0.82965,-3.41569 -1.27422,-5.069509 z m -7.617909,-5.11283 c 2.070899,0.05246 4.141349,0.104106 6.211359,0.154891 -0.9975,-3.481254 -1.99025,-6.842725 -3.01241,-10.161064 -1.05146,3.299132 -2.128285,6.610393 -3.198949,10.006173 z"
     style="font-weight:bold;-inkscape-font-specification:Sans Bold;fill:#ffffff"
     id="path3002"
     inkscape:original-d="m 106.46098,-54.451165 -9.16832,0 -1.446827,4.142495 -5.893918,0 8.422058,-22.738033 6.990457,0 8.42206,22.738033 -5.89392,0 -1.43159,-4.142495 m -7.706263,-4.218644 6.228973,0 -3.10687,-9.046477 -3.122103,9.046477" /><path
     d="m 111.6073,-72.985348 c 6.98529,-0.01234 13.97054,-0.02961 20.9556,-0.03176 0.0281,1.720217 0.0217,3.424295 0.005,5.125508 -2.50644,-0.02195 -5.01335,-0.04187 -7.52072,-0.06083 -0.0243,3.472178 -0.0832,6.942794 -0.12296,10.516616 -0.0397,3.573822 -0.0604,7.25085 -0.223,11.131018 -1.94771,-0.06771 -3.89543,-0.137111 -5.84314,-0.208381 0.16678,-3.848674 0.1888,-7.500615 0.22718,-11.049074 0.0384,-3.548459 0.0931,-6.993436 0.11057,-10.433014 -2.51314,-0.01796 -5.02674,-0.0356 -7.54079,-0.05351 0.005,-1.644971 -0.003,-3.286976 -0.0478,-4.936576 z"
     style="font-weight:bold;-inkscape-font-specification:Sans Bold;fill:#ffffff"
     id="path3004"
     inkscape:original-d="m 111.63909,-73.046703 20.95615,0 0,4.431861 -7.53873,0 0,18.306172 -5.86346,0 0,-18.306172 -7.55396,0 0,-4.431861" /><path
     d="m 135.57825,-73.016936 c 5.27429,0.0024 10.54845,0.01595 15.82237,0.05576 0.006,1.785274 -0.019,3.5443 -0.0508,5.292793 -3.30836,-0.05371 -6.61759,-0.09753 -9.92766,-0.135177 -0.0222,1.647078 -0.0526,3.288503 -0.08,4.936624 3.10711,0.05489 6.21315,0.11442 9.31808,0.181474 -0.0331,1.741517 -0.061,3.487466 -0.0827,5.252967 -3.10242,-0.07932 -6.20598,-0.152747 -9.31065,-0.222941 -0.0248,2.06114 -0.0429,4.151635 -0.0736,6.29359 3.41429,0.09317 6.82771,0.187332 10.24022,0.285765 -0.0218,1.832614 -0.051,3.702148 -0.11198,5.623261 -5.36736,-0.165175 -10.7349,-0.328651 -16.10248,-0.501099 0.18834,-4.876699 0.18242,-9.425553 0.24121,-13.862244 0.0588,-4.436691 0.18228,-8.76122 0.11808,-13.200775 z"
     style="font-weight:bold;-inkscape-font-specification:Sans Bold;fill:#ffffff"
     id="path3006"
     inkscape:original-d="m 135.61074,-73.046703 15.82372,0 0,4.431861 -9.96026,0 0,4.233873 9.3663,0 0,4.43186 -9.3663,0 0,5.208579 10.29531,0 0,4.43186 -16.15877,0 0,-22.738033" /></g>
<path
   style="fill:#ffffff;stroke:#000000;stroke-width:0.80000001px;stroke-linecap:butt;stroke-linejoin:miter;stroke-opacity:0"
   d="m 48.294492,80.251056 10.069915,-2.260592 0,4.829448 z"
   id="path3033"
   inkscape:connector-curvature="0" /><path
   style="fill:#ffffff;stroke:#000000;stroke-width:0.80000001px;stroke-linecap:butt;stroke-linejoin:miter;stroke-opacity:0"
   d="m 61.755297,82.460272 10.069915,-2.26059 0,4.82945 z"
   id="path3033-6"
   inkscape:connector-curvature="0" /><path
   style="fill:#ffffff;stroke:#000000;stroke-width:0.80000001px;stroke-linecap:butt;stroke-linejoin:miter;stroke-opacity:0"
   d="m 82.92267,85.645653 14.385593,-3.082624 2.877117,7.706569 z"
   id="path3033-3"
   inkscape:connector-curvature="0"
   sodipodi:nodetypes="cccc" /><path
   style="fill:#ffffff;stroke:#000000;stroke-width:0.80000001px;stroke-linecap:butt;stroke-linejoin:miter;stroke-opacity:0"
   d="m 104.59701,89.445014 10.06992,-2.26059 0,4.82945 z"
   id="path3033-33"
   inkscape:connector-curvature="0" /><path
   style="fill:#ffffff;stroke:#000000;stroke-width:0.80000001px;stroke-linecap:butt;stroke-linejoin:miter;stroke-opacity:0"
   d="m 129.88136,94.27701 10.06992,-2.26059 0,4.82945 z"
   id="path3033-7"
   inkscape:connector-curvature="0" /><path
   style="fill:#231f20;stroke:#000000;stroke-width:1px;stroke-linecap:butt;stroke-linejoin:miter;stroke-opacity:0;fill-opacity:1"
   d="m 99.414725,49.322034 -7.963454,20.807733 -2.31197,18.495762 8.73411,7.963454 11.302969,2.825741 15.15625,-2.568856 20.29396,-7.192796 7.70657,-12.330509 3.08262,-15.15625 -3.59639,-8.220339 -15.92691,-14.642479 -16.95445,-2.568855 z"
   id="path3842"
   inkscape:connector-curvature="0"
   transform="matrix(0.8,0,0,-0.8,0,194)" /><text
   xml:space="preserve"
   style="font-size:64.56613922px;font-style:normal;font-weight:normal;line-height:125%;letter-spacing:0px;word-spacing:0px;fill:#000000;fill-opacity:1;stroke:none;font-family:Sans"
   x="64.875862"
   y="-103.50382"
   id="text3844"
   sodipodi:linespacing="125%"
   transform="matrix(1.0726143,0.24285494,0,-0.93230158,0,0)"><tspan
     sodipodi:role="line"
     id="tspan3846"
     x="64.875862"
     y="-103.50382"
     style="font-weight:bold;fill:#ffffff;-inkscape-font-specification:Sans Bold">1</tspan></text>
<path
   style="fill:#231f20;fill-opacity:1;stroke:#000000;stroke-width:0.80000001px;stroke-linecap:butt;stroke-linejoin:miter;stroke-opacity:0"
   d="m 70.429214,118.27013 18.906781,4.11017 -0.102752,3.08263 -18.701274,-4.52119 z"
   id="path3850"
   inkscape:connector-curvature="0" /><path
   style="fill:#231f20;fill-opacity:1;stroke:#000000;stroke-width:0.80000001px;stroke-linecap:butt;stroke-linejoin:miter;stroke-opacity:0"
   d="m 101.43241,124.94915 18.90678,4.11017 -0.10275,3.08263 -18.70128,-4.52119 z"
   id="path3850-2"
   inkscape:connector-curvature="0" /><path
   style="fill:#ffffff;stroke:#000000;stroke-width:0.80000001px;stroke-linecap:butt;stroke-linejoin:miter;stroke-opacity:0"
   d="m 119.50317,155.77543 -18.08474,7.60381 -0.10276,-1.5927 18.29027,-7.75794 z"
   id="path3870"
   inkscape:connector-curvature="0"
   sodipodi:nodetypes="ccccc" /><path
   style="fill:#ffffff;stroke:#000000;stroke-width:0.80000001px;stroke-linecap:butt;stroke-linejoin:miter;stroke-opacity:0"
   d="m 73.748091,144.32932 17.074685,-7.33848 -0.508608,-1.41942 -21.361519,9.17621 0.290633,1.39814 z"
   id="path3872"
   inkscape:connector-curvature="0"
   sodipodi:nodetypes="cccccc" /></g></svg>