<?xml version="1.0" encoding="UTF-8" standalone="no"?>
<!-- Created with Inkscape (http://www.inkscape.org/) -->

<svg
   xmlns:dc="http://purl.org/dc/elements/1.1/"
   xmlns:cc="http://creativecommons.org/ns#"
   xmlns:rdf="http://www.w3.org/1999/02/22-rdf-syntax-ns#"
   xmlns:svg="http://www.w3.org/2000/svg"
   xmlns="http://www.w3.org/2000/svg"
   xmlns:sodipodi="http://sodipodi.sourceforge.net/DTD/sodipodi-0.dtd"
   xmlns:inkscape="http://www.inkscape.org/namespaces/inkscape"
   id="svg2"
   version="1.1"
   inkscape:version="0.48.3.1 r9886"
   width="242.5"
   height="242.5"
   xml:space="preserve"
   sodipodi:docname="21th_Century_Pirates.svg"><metadata
     id="metadata8"><rdf:RDF><cc:Work
         rdf:about=""><dc:format>image/svg+xml</dc:format><dc:type
           rdf:resource="http://purl.org/dc/dcmitype/StillImage" /><dc:title></dc:title></cc:Work></rdf:RDF></metadata><defs
     id="defs6" /><sodipodi:namedview
     pagecolor="#ffffff"
     bordercolor="#666666"
     borderopacity="1"
     objecttolerance="10"
     gridtolerance="10"
     guidetolerance="10"
     inkscape:pageopacity="0"
     inkscape:pageshadow="2"
     inkscape:window-width="1301"
     inkscape:window-height="744"
     id="namedview4"
     showgrid="false"
     inkscape:zoom="3.8927835"
     inkscape:cx="156.38557"
     inkscape:cy="105.16799"
     inkscape:window-x="65"
     inkscape:window-y="24"
     inkscape:window-maximized="1"
     inkscape:current-layer="g10" /><g
     id="g10"
     inkscape:groupmode="layer"
     inkscape:label="ink_ext_XXXXXX"
     transform="matrix(1.25,0,0,-1.25,0,242.5)"><path
       inkscape:connector-curvature="0"
       id="path14"
       style="fill:#ffffff;fill-opacity:1;fill-rule:evenodd;stroke:none"
       d="m 0.259766,0.566797 192.756004,0 0,192.756003 -192.756004,0 0,-192.756003 z" /><path
       inkscape:connector-curvature="0"
       id="path16"
       style="fill:#231f20;fill-opacity:1;fill-rule:evenodd;stroke:none"
       d="m 98.15,151.566 c 1.8004,0.288 5.185,0.072 7.561,-1.656 2.593,-1.945 4.681,-5.185 4.321,-8.93 -0.504,-4.537 -1.584,-7.417 -5.473,-10.586 -4.7528,-3.888 -9.3613,-4.104 -11.5219,-3.96 -1.5121,0.144 -5.8328,1.08 -8.2094,4.969 -1.5121,2.664 -1.0078,6.409 -0.5757,8.065 0.432,1.656 3.1683,6.049 5.9765,8.281 2.8086,2.161 6.1934,3.601 7.9215,3.817 l 0,0" /><path
       inkscape:connector-curvature="0"
       id="path18"
       style="fill:#231f20;fill-opacity:1;fill-rule:evenodd;stroke:none"
       d="m 3.09453,20.9363 0,5.977 34.63747,3.8887 c 0,0 -7.1289,2.8085 -8.8574,8.0652 -1.8723,5.5453 2.5926,11.0902 6.193,11.7379 4.8969,0.9363 11.3058,1.4406 11.3058,1.4406 l 0,0 6.3371,-0.5762 137.4705,-15.7707 0,-14.7625 -187.08647,0" /><path
       inkscape:connector-curvature="0"
       id="path20"
       style="fill:#231f20;fill-opacity:1;fill-rule:evenodd;stroke:none"
       d="M 61.8562,53.9898 151.727,64.4316 172.754,56.4383 172.826,41.9637 61.8562,53.9898" /><path
       inkscape:connector-curvature="0"
       id="path22"
       style="fill:#231f20;fill-opacity:1;fill-rule:evenodd;stroke:none"
       d="m 190.181,172.954 -23.62,0 9.578,-97.4325 c 0,0 -0.216,-1.6563 -1.368,-1.8723 -1.153,-0.2164 -1.369,0.936 -1.369,0.936 l 0,0 -4.248,16.1304 -17.499,6.2653 -18.219,-17.0668 15.122,-9.7215 -14.546,-1.7281 -8.209,5.2566 -6.41,-6.841 -13.97,-1.6563 12.17,12.6739 -18.7231,10.8019 -8.8574,-1.3684 c 0,0 7.6336,-2.2324 10.7305,-4.8246 3.024,-2.5925 3.672,-5.3289 2.952,-9.7937 -0.72,-4.4649 -5.6169,-7.9934 -5.6169,-7.9934 l 0,0 -28.5886,-3.4566 -3.3129,1.6562 c 0,0 -4.2485,2.1606 -4.4645,6.7692 -0.216,4.1769 4.4645,10.7297 4.4645,10.7297 l 0,0 -7.2731,2.0886 0,-6.4812 -14.5461,-2.232 0,-5.0411 13.1059,1.7282 0,-5.9051 -12.8899,-1.8723 0.0719,-4.2484 -8.6414,-1.1524 0,20.1633 -2.8805,-0.432 0,4.2488 118.5316,20.8836 16.347,-6.1215 -5.402,22.1795 -10.729,4.033 -7.489,-11.666 -0.072,-6.337 -5.762,-1.152 0,6.265 -4.896,4.897 -6.337,1.44 c 0,0 1.368,-0.864 1.872,-1.152 1.584,-1.225 2.017,-2.448 2.017,-4.393 0,-2.664 -3.529,-4.105 -3.529,-4.105 l 0,0 5.977,-3.888 -6.049,-1.225 -6.841,3.529 -0.072,-4.6805 -5.113,-0.9364 0,13.6829 -4.105,1.224 c 0,0 0,-9.434 -0.072,-12.89 -0.072,-2.6649 -2.952,-3.3852 -2.952,-3.3852 0,0 -6.769,-1.8723 -9.1457,-1.152 -2.3046,0.6481 -2.3046,3.0242 -2.3046,3.0242 l 0,9.578 -2.0883,1.368 -0.0719,-4.177 -3.9605,-0.936 0.0718,-10.8013 -4.9687,-0.9364 0.0719,10.5857 -4.0325,-0.72 -0.0718,2.664 -2.5207,1.08 0,-14.6901 -4.7528,-0.8637 -6.5531,5.6887 0.0723,-6.841 -4.609,-0.8641 0.0718,12.3142 -3.6003,1.08 0,-3.3126 -6.0493,-1.5843 0,-2.5926 5.2571,1.1523 0,-3.0246 -5.2571,-1.1523 0,-2.3762 5.9051,0.9363 0.0723,-2.0886 -10.4418,-1.8723 0.0719,10.4418 c 0,0 -1.2243,0.2879 -4.4649,0.7203 1.5125,-1.0082 1.1524,-1.8004 1.1524,-1.8004 l 0,0 -2.3762,-2.3766 c 0,0 -0.9363,1.2243 -3.2406,0.7204 -1.8004,-0.3602 -2.5926,-2.0887 -2.5926,-3.7446 0.0719,-1.7281 1.0082,-3.8886 3.3125,-3.5289 2.0164,0.3606 3.0246,2.3766 3.0246,2.3766 l 0,0 2.8082,-1.4402 -1.4398,-2.0883 c 0,0 -7.4895,-1.4403 -8.7133,-1.5844 -2.5207,0.9363 -3.0969,3.0969 -3.1688,5.1129 -0.216,3.8887 2.3043,6.5531 2.3043,6.5531 l 0,0 -2.8082,1.5844 0,3.0238 118.3153,26.213 9.721,-3.745 -3.888,15.627 -7.993,2.664 -0.072,-11.378 -3.457,-0.72 c 0,0 0,6.266 0,8.066 -0.072,2.808 -0.72,3.384 -1.728,3.456 -1.728,0.072 -2.233,-1.368 -2.233,-3.745 0,-2.376 0,-8.713 0,-8.713 l 0,0 -4.032,-0.864 -0.072,18.507 -23.261,9.793 c 0,0 1.153,-1.079 2.449,-2.664 2.881,-3.528 4.249,-7.345 3.169,-14.042 -1.009,-6.625 -4.753,-11.234 -4.753,-11.234 -2.448,-4.176 -8.354,-8.137 -8.354,-8.137 0,0 -14.1859,-3.385 -18.0742,-3.745 -3.8172,-0.36 -8.7855,3.168 -11.234,5.617 -2.4484,2.448 -3.8168,5.617 -4.5367,8.713 -0.7203,3.169 1.4399,11.594 1.4399,11.594 l 0,0 -5.2567,2.809 c 0,0 0.9364,-2.017 1.2961,-3.097 0.3602,-1.008 1.0086,-2.448 0.1442,-6.553 -0.5039,-2.952 -2.1602,-4.753 -2.1602,-4.753 l 0,0 -12.2422,-15.05 14.6903,2.808 0,-5.977 -34.3493,-7.705 0,3.889 c 0,0 20.7395,23.62 21.9633,25.348 1.8723,2.593 2.5926,4.897 0.216,6.769 -2.448,1.944 -5.0406,1.08 -7.705,-1.152 -2.3762,-2.017 -3.6004,-6.481 -3.6004,-6.481 l 0,0 -10.5141,-1.729 2.6645,8.066 c 3.0246,7.129 12.3859,10.37 16.6347,10.874 2.3762,0.288 6.2653,-1.081 6.2653,-1.081 l 0,0 12.6019,-5.616 c 0,0 0.432,0.648 1.0801,1.8 1.7281,3.24 9.4336,11.594 12.2418,12.962 5.2574,2.52 10.8019,3.385 15.4107,2.808 2.808,-0.36 9.146,-2.808 9.146,-2.808 l 0,0 24.628,-10.297 -0.072,7.057 4.248,1.512 12.386,-5.257 -5.113,21.459 -110.3935,0.145 c 0,0 -18.1473,-99.0888 -18.507,-101.2493 -0.2883,-1.5844 -1.0805,-2.2324 -2.7367,-1.8723 -1.4399,0.3602 -1.0801,2.6645 -1.0801,2.6645 l 0,0 4.3207,100.4571 -17.93087,0 0,-143.4481 9.57777,1.1523 -0.0723,24.052 c 0,0 0.216,1.9441 2.0164,1.7281 1.6563,-0.1442 3.5285,-0.2883 4.2488,-0.5043 1.152,-0.3598 1.584,-1.2238 1.5121,-2.5203 0,-1.8723 0,-21.6035 0,-21.6035 l 0,0 9.0735,1.1523 c 0,0 -3.2406,1.2242 -4.3207,7.057 -0.2879,1.8004 -0.5043,4.609 1.8722,8.4254 2.3766,3.6727 6.9852,5.1129 8.5696,5.3289 1.5125,0.216 116.8031,14.0422 116.8031,14.0422 l 0,0 20.451,-8.1375 0,1.9445 c 0,0 0,1.8727 1.872,1.8727 2.665,0 2.881,0 4.322,0.0719 2.376,0 2.16,-2.0887 2.16,-2.0887 l 0,0 -0.072,-20.523 9.073,-0.9364 0,132.9345 z M 16.993,61.4789 c -5.2571,0.6484 -3.961,5.9051 -3.961,5.9051 l 0,0 9.4336,-1.5121 c 0,0 0,-4.9688 -5.4726,-4.393 l 0,0 z m 159.578,5.4731 c -3.817,-0.7204 -5.257,3.1683 -5.257,3.1683 l 0,0 8.713,2.0168 c 0,0 1.369,-4.2492 -3.456,-5.1851 l 0,0 z m -41.053,73.955 -2.952,-0.719 0,4.392 -3.6,-0.864 0,-18.284 3.6,1.08 0,10.003 c 1.152,0.36 2.952,0.936 2.952,0.936 l 0,3.456" /><path
       inkscape:connector-curvature="0"
       id="path24"
       style="fill:#231f20;fill-opacity:1;fill-rule:evenodd;stroke:none"
       d="m 102.111,112.175 4.105,-2.088 c 0,0 0.072,-7.345 0.072,-8.425 -0.072,-1.08 -0.577,-1.8007 -2.017,-2.0886 -1.44,-0.2882 -2.16,-0.2164 -2.16,1.7286 0,1.944 0,10.873 0,10.873 l 0,0" /><path
       inkscape:connector-curvature="0"
       id="path26"
       style="fill:#231f20;fill-opacity:1;fill-rule:evenodd;stroke:none"
       d="m 121.266,111.743 c 0,0 2.088,0.216 2.808,0 0.721,-0.288 1.08,-0.936 0.936,-1.872 -0.144,-0.936 -0.792,-1.224 -1.368,-1.368 -0.504,-0.216 -2.376,-0.505 -2.376,-0.505 l 0,3.745" /><path
       inkscape:connector-curvature="0"
       id="path28"
       style="fill:#231f20;fill-opacity:1;fill-rule:evenodd;stroke:none"
       d="m 136.676,118.945 6.842,-1.441 -2.377,-3.672 -4.465,5.113" /><path
       inkscape:connector-curvature="0"
       id="path30"
       style="fill:#231f20;fill-opacity:1;fill-rule:evenodd;stroke:none"
       d="m 66.393,105.406 8.9293,-2.808 -0.0719,-5.8332 -8.8574,8.6412" /><path
       inkscape:connector-curvature="0"
       id="path36"
       style="fill:#231f20;fill-opacity:1;fill-rule:evenodd;stroke:none"
       d="m 157.272,140.476 -2.377,9.218 -12.674,5.329 0,-12.243 c 0,0 1.008,1.657 3.313,1.873 2.376,0.216 3.672,-1.368 3.672,-1.368 l 0,0 8.066,-2.809" /><path
       style="fill:#231f20;fill-opacity:1;stroke:#000000;stroke-width:0.80000001px;stroke-linecap:butt;stroke-linejoin:miter;stroke-opacity:0"
       d="M 31.824299,77.017712 C 35.166577,58.417204 34.585311,56.092141 34.585311,56.092141 L 152.00099,70.042524 151.71036,96.780747 z"
       id="path3025"
       inkscape:connector-curvature="0"
       sodipodi:nodetypes="ccccc" /><text
       xml:space="preserve"
       style="font-size:31.19054985px;font-style:normal;font-weight:normal;line-height:125%;letter-spacing:0px;word-spacing:0px;fill:#000000;fill-opacity:1;stroke:none;font-family:Sans"
       x="31.317337"
       y="-50.30867"
       id="text3814"
       sodipodi:linespacing="125%"
       transform="matrix(1,0.16422782,0,-1,0,0)"><tspan
         sodipodi:role="line"
         id="tspan3816"
         x="31.317337"
         y="-50.30867"
         style="font-weight:bold;fill:#ffffff;-inkscape-font-specification:Sans Bold">PIRATE</tspan></text>
</g></svg>